<svg xmlns="http://www.w3.org/2000/svg" xmlns:xlink="http://www.w3.org/1999/xlink" viewBox="894 782.5 660 163"><path fill="#768B99" d="M1553.9 945.5l.1-136.5c0-1.9-1.6-3.5-3.5-3.5h-653c-2 0-3.5 1.6-3.5 3.5l.1 136.5h659.8z"/><path fill="#E3E7EC" d="M898.6 846.3h650.7v46.1H898.6z"/><path fill="#FFF" d="M928.5 884.2c5.7-2.8 9.6-8.7 9.6-15.5 0-6-3-11.2-7.6-14.3h343.9v29.7l-345.9.1z"/><path fill="#F4F4F6" d="M1280.3 854.5h170.5v29.7h-170.5z"/><path fill="#B6C2CC" d="M1495.1 846.3h2.3v46.1h-2.3"/><path fill="#EDF0F1" d="M898.6 895.9h650.7v49.6H898.6z"/><path fill="#E3E7EC" d="M1147.3 846.3c-9.8 0-13.9-5-15.7-14.4-1.1-6-3.1-17.1-18.1-17.1H991.3c-14.8 0-16.9 11-18 17.1-1.8 9.4-6 14.4-15.8 14.4h189.8z"/><path fill="none" d="M1157.8 831.8h-4.6v4.6h-1.8v-4.6h-4.7V830h4.7v-4.7h1.8v4.7h4.6"/><path fill="#768B99" d="M1516.1 862.1h14.5c.9 0 1.8.9 1.8 1.8s-.9 1.8-1.8 1.8h-14.5c-.9 0-1.8-.9-1.8-1.8 0-1 .9-1.8 1.8-1.8M1516.1 867.3h14.5c.9 0 1.8.9 1.8 1.7 0 .9-.9 1.8-1.8 1.8h-14.5c-.9 0-1.8-.9-1.8-1.8 0-.8.9-1.7 1.8-1.7M1516.1 872.6h14.5c.9 0 1.8.9 1.8 1.8s-.9 1.8-1.8 1.8h-14.5c-.9 0-1.8-.7-1.8-1.6 0-1 .9-2 1.8-2M921.1 853.3c8.5 0 15.5 6.9 15.5 15.5 0 8.5-6.9 15.5-15.5 15.5-8.5 0-15.5-6.9-15.5-15.5s6.9-15.5 15.5-15.5M1228.3 865.6h11.8l-5.9 8.1M1264 869.1h-7l2.8-2.9c-.7-.4-1.4-.6-2.3-.6-2.3 0-4.1 1.8-4.1 4.1s1.8 4.1 4.1 4.1c1.2 0 2.3-.5 3-1.3l2 1.2c-1.2 1.5-3 2.5-5 2.5-3.5 0-6.4-2.9-6.4-6.4s2.9-6.4 6.4-6.4c1.5 0 2.8.5 3.9 1.3l2.5-2.5.1 6.9z"/><path fill="none" d="M1117.6 834l-1.9 1.8-2.8-2.8-2.9 2.8-1.7-1.8 2.8-2.8-2.8-2.8 1.8-1.9 2.8 2.8 2.8-2.8 1.9 1.9-2.8 2.7"/><path fill="#768B99" d="M1437.2 869.8c.5-.9.7-1.9.7-3.1 0-3.2-2.6-5.8-5.8-5.8-3.3 0-5.8 2.6-5.8 5.8s2.6 5.8 5.8 5.8c1.1 0 2.1-.2 3-.7l5.4 5.4 2.1-2.1-5.4-5.3zm-5.1.4c-2 0-3.5-1.6-3.5-3.5s1.5-3.5 3.5-3.5 3.5 1.6 3.5 3.5c0 2-1.6 3.5-3.5 3.5"/><path fill="#FFF" d="M927.8 871.3h-7.1l3.2 3.2c.5.5.6 1.2.2 1.6l-1.4 1.4c-.4.4-1.1.3-1.6-.2l-7.4-7.3c-.1-.1-.2-.2-.3-.4s-.2-.4-.2-.6c0-.2.1-.4.2-.6.1-.1.2-.2.3-.4l7.4-7.3c.5-.5 1.2-.6 1.6-.2l1.4 1.4c.4.4.3 1.1-.2 1.6l-3.1 3.1h7c.6 0 1.2.5 1.2 1.1v2.3c0 .8-.6 1.3-1.2 1.3"/><path fill="#768B99" d="M1206.1 865.5h-1.9c-.3 0-.5.2-.5.5s.2.5.5.5h1.9c.3 0 .5-.2.5-.5s-.2-.5-.5-.5zm0 2h-1.9c-.3 0-.5.2-.5.5s.2.5.5.5h1.9c.3 0 .5-.2.5-.5s-.2-.5-.5-.5zm0 1.9h-1.9c-.3 0-.5.2-.5.5s.2.5.5.5h1.9c.3 0 .5-.2.5-.5s-.2-.5-.5-.5zm9.6-6.8h-4.3s-2.8.5-2.9 2.2c-.1-1.8-1.7-2.2-2.9-2.2h-4.3c-.3 0-.6.3-.6.7v9.4c0 .3.3.7.6.7h4.3c1.6 0 2.7 1 2.9 2.2.2-1.3 1.4-2.2 2.9-2.2h4.3c.4 0 .6-.4.6-.8v-9.3c0-.4-.3-.7-.6-.7zm-1.3 8.8h-2.9c-1.6 0-2.8.8-2.9 2.1-.1-1.4-1.4-2.1-2.9-2.1h-2.9v-6.9h3.4c1.1 0 2.4 1.5 2.4 2.7 0-1.3 1.4-2.7 2.4-2.7h3.4v6.9z"/><circle fill="#768B99" cx="1287.9" cy="858.9" r="76.2"/><g><defs><circle id="a" cx="1287.9" cy="858.9" r="76.2"/></defs><clipPath id="b"><use xlink:href="#a" overflow="visible"/></clipPath><g clip-path="url(#b)"><path fill="#E3E7EC" d="M1121.7 822.2h280.4v69.1h-280.4z"/><path fill="#EDF0F1" d="M1121.7 898.4h280.4V939h-280.4z"/><path fill="#FFF" d="M1166.6 879.1c8.5-4.2 14.4-13 14.4-23.2 0-8.9-4.5-16.8-11.3-21.4h220.1v44.6h-223.2z"/><path fill="#768B99" d="M1288.8 850.9h-3.5c-.5 0-.9.3-.9.9 0 .5.3.9.9.9h3.5c.5 0 .9-.3.9-.9 0-.5-.3-.9-.9-.9zm0 3.5h-3.5c-.5 0-.9.3-.9.9 0 .5.3.9.9.9h3.5c.5 0 .9-.3.9-.9 0-.6-.3-.9-.9-.9zm0 3.4h-3.5c-.5 0-.9.3-.9.9 0 .5.3.9.9.9h3.5c.5 0 .9-.3.9-.9 0-.5-.3-.9-.9-.9zm17.1-12.1h-7.6s-5 .9-5.2 4c-.2-3.1-2.9-4-5.2-4h-7.6c-.5 0-1 .5-1 1.2v16.6c0 .5.5 1.2 1 1.2h7.6c2.8 0 4.8 1.7 5.2 4 .3-2.2 2.4-4 5.2-4h7.6c.7 0 1-.7 1-1.4v-16.4c.1-.7-.5-1.2-1-1.2zm-2.4 15.6h-5.2c-2.8 0-5 1.4-5.2 3.8-.2-2.4-2.4-3.8-5.2-3.8h-5.2v-12.1h6c1.9 0 4.3 2.6 4.3 4.8 0-2.2 2.4-4.8 4.3-4.8h6v12.1h.2z"/><image overflow="visible" opacity=".3" width="24" height="35" xlink:href="901A26AB9189D74F.png" transform="translate(1303 868.5)"/><path fill="#FFF" d="M1311.7 889.7l-4.9 4.7v-23.3l16.9 16.7h-6.9l4.7 9.5-4.9 2.4"/><path d="M1320.7 886.5l-12.7-12.4v17.4l4.2-3.9 5 10.4 2.6-1.2-4.9-10.3"/><path fill="#768B99" d="M1255 845.2c-6.6 0-12 5.4-12 12s5.4 12 12 12 12-5.4 12-12-5.3-12-12-12zm6.2 13.2h-5v5h-2.4v-5h-5V856h5v-5h2.4v5h5v2.4z"/><path fill="#768B99" fill-opacity=".5" d="M1322.5 851.1h17.6l-8.7 12.2M1374 856.3h-10.5l4.3-4.3c-1-.6-2.1-1-3.4-1-3.4 0-6.1 2.7-6.1 6.1 0 3.4 2.7 6.1 6.1 6.1 1.8 0 3.4-.8 4.6-2l3 1.8c-1.8 2.2-4.5 3.7-7.5 3.7-5.3 0-9.6-4.3-9.6-9.6s4.3-9.7 9.6-9.7c2.2 0 4.2.8 5.9 2l3.8-3.7v10.6h-.2z"/></g></g><g><path fill="#FFF" d="M1287.9 784.8c40.9 0 74.2 33.3 74.2 74.2s-33.3 74.2-74.2 74.2c-40.9 0-74.2-33.3-74.2-74.2s33.3-74.2 74.2-74.2m0-2c-42.1 0-76.2 34.1-76.2 76.2s34.1 76.2 76.2 76.2 76.2-34.1 76.2-76.2-34.1-76.2-76.2-76.2z"/></g></svg>