<svg xmlns="http://www.w3.org/2000/svg" viewBox="1184 824 80 80"><path fill="none" d="M1184 824h80v80h-80z"/><circle fill="#FFF" cx="1224" cy="864" r="38.8"/><g fill="#00A7E0"><path d="M1207.2 862h12.2v3.2h-12.2zM1207.2 868.4h12.2v3.2h-12.2zM1207.2 855.6h12.2v3.2h-12.2z"/><path d="M1245.4 846h-15.6c-3.4 0-5.2 1.4-5.8 3.2-.6-1.8-2.4-3.2-5.8-3.2h-15.6c-1.6 0-3 1.4-3 3.2v28.6c0 1.8 1.4 3.2 3 3.2v.2h15.6c1.4 0 4.2 1.6 5.8 4.8 1.6-3.2 4.4-4.8 5.8-4.8h15.6c1.6 0 3-1.4 3-3.2v-28.8c0-1.8-1.4-3.2-3-3.2zm-1.6 30.2h-14c-1.4 0-4.2 0-5.8 3.2-1.6-3-4.4-3-5.8-3h-14v-25.6h14c3.4 0 5.2 1.4 5.8 3.2.6-1.8 2.4-3.2 5.8-3.2h14v25.4z"/></g></svg>