<svg xmlns="http://www.w3.org/2000/svg" xmlns:xlink="http://www.w3.org/1999/xlink" viewBox="1184 824 80 80"><path fill="none" d="M1184 824h80v80h-80z"/><circle fill="#FFF" cx="1224" cy="864" r="38.8"/><path fill="#00A7E0" d="M1220.4 853.4c2 2 6.4 7.2 6.4 7.2s-.2-12.6 4.6-19.6c-16.8-1.8-26.8 1-26.8 1s4.8 1.4 6.4 2.8c-.4.2-.8.4-1.2.8-4 2.4-6.8 5.8-8.2 9.6-1 2.2-1.8 4.6-2 7.2-1.2 9.8 4.4 18.8 13.2 23.6 1.4-1 3-2.2 4.8-3.8 1.6-1.4 2.8-3.2 3.8-5-5.4-1.8-9-6.4-9.4-11.4-.2-5 3.2-9.8 8.4-12.4zm16.6-10.8c-1.4.8-3.2 2.2-4.6 4.4-1 1.6-1.8 3.4-2.6 5 2.4 1 4.6 2.8 6.2 5.2 1.6 2.4 2.4 5.4 2 8.6-.6 4.6-3.4 8.8-7.6 11.2-1.8-2-4.8-7.6-4.8-7.6s0 6.6-2.2 11.2c-1.4 3-3 5.6-5.8 7.6 3.6 1.4 7.2 2.2 10.8 2.4v-.4c.2 0 .2.4.4.4 7.4 0 14.6-1.2 14.6-1.2s-3-2-4.6-3.4c4.6-2.8 7.8-7.2 9-12 .8-2 1.2-4 1.4-6.2 1.2-10.6-4-20.2-12.2-25.2 0 0 8.2 5 0 0z"/><defs><path id="a" d="M1220.4 853.4c2 2 6.4 7.2 6.4 7.2s-.2-12.6 4.6-19.6c-16.8-1.8-26.8 1-26.8 1s4.8 1.4 6.4 2.8c-.4.2-.8.4-1.2.8-4 2.4-6.8 5.8-8.2 9.6-1 2.2-1.8 4.6-2 7.2-1.2 9.8 4.4 18.8 13.2 23.6 1.4-1 3-2.2 4.8-3.8 1.6-1.4 2.8-3.2 3.8-5-5.4-1.8-9-6.4-9.4-11.4-.2-5 3.2-9.8 8.4-12.4zm16.6-10.8c-1.4.8-3.2 2.2-4.6 4.4-1 1.6-1.8 3.4-2.6 5 2.4 1 4.6 2.8 6.2 5.2 1.6 2.4 2.4 5.4 2 8.6-.6 4.6-3.4 8.8-7.6 11.2-1.8-2-4.8-7.6-4.8-7.6s0 6.6-2.2 11.2c-1.4 3-3 5.6-5.8 7.6 3.6 1.4 7.2 2.2 10.8 2.4v-.4c.2 0 .2.4.4.4 7.4 0 14.6-1.2 14.6-1.2s-3-2-4.6-3.4c4.6-2.8 7.8-7.2 9-12 .8-2 1.2-4 1.4-6.2 1.2-10.6-4-20.2-12.2-25.2 0 0 8.2 5 0 0z"/></defs><clipPath id="b"><use xlink:href="#a" overflow="visible"/></clipPath><g clip-path="url(#b)"><path fill="#00A7E0" d="M1197.6 837.2h54v56h-54z"/><defs><path id="c" d="M1197.6 837.2h54v56h-54z"/></defs><clipPath id="d"><use xlink:href="#c" overflow="visible"/></clipPath><path clip-path="url(#d)" fill="#00A7E0" d="M1188 829h72.6v72.6H1188z"/></g></svg>